<svg xmlns="http://www.w3.org/2000/svg" viewBox="0 0 64 64"><circle cx="32" cy="32" r="32" fill="#4573ff"/><g transform="translate(18.727 21.06)"><path fill="none" stroke="#fff" stroke-linecap="round" stroke-linejoin="round" stroke-miterlimit="10" stroke-width="1.5" d="M7.341 21.385a13.993 13.993 0 001.4.561 14.762 14.762 0 004.762.779c7.215 0 13.063-5.087 13.063-11.363S20.719 0 13.504 0 .441 5.087.441 11.363a10.318 10.318 0 002.293 6.432"/><circle cx="1.28" cy="1.28" r="1.28" fill="#fff" transform="translate(8.506 7.506)"/><circle cx="1.28" cy="1.28" r="1.28" fill="#fff" transform="translate(15.942 7.506)"/><path fill="none" stroke="#fff" stroke-linecap="round" stroke-linejoin="round" stroke-miterlimit="10" stroke-width="1.5" d="M8.506 15.219a12.687 12.687 0 005 1.28 12.687 12.687 0 005-1.28M2.734 17.794L0 23.229l7.207-1.8"/></g></svg>