<svg xmlns="http://www.w3.org/2000/svg" viewBox="0 0 66 66"><path fill="#4573FF" d="M32.75 64.75c17.6731 0 32-14.3269 32-32 0-17.6731-14.3269-32-32-32-17.6731 0-32 14.3269-32 32 0 17.6731 14.3269 32 32 32z"/><path fill="none" stroke="#FFF" stroke-linecap="round" stroke-width="1.5" d="M21.4457318 26.55c0-1.41385 1.14615-2.56 2.56-2.56h21.2109c1.4139 0 2.56 1.14615 2.56 2.56v11.84c0 2.1208-1.7192 3.84-3.84 3.84h-19.9309c-1.41385 0-2.56-1.1462-2.56-2.56"/><path fill="#FFF" d="M43.7823478 35.0748c0 .68267-.2368 1.25866-.7104 1.728-.4736.4693-1.11146.7637-1.9136.8832v.8064c0 .1963-.05973.3563-.1792.48-.11947.1237-.27733.1856-.4736.1856s-.35413-.0619-.4736-.1856c-.11947-.1237-.1792-.2837-.1792-.48v-.7808c-.4864-.0427-.96-.1451-1.4208-.3072-.39497-.139-.742922-.3156-1.043853-.52976l-.146547-.11024c-.110934-.0768-.187733-.16213-.2304-.256-.0426669-.09387-.064-.20907-.064-.3456 0-.1792.0533328-.33707.16-.4736.106667-.13653.228266-.2048.3648-.2048.085334 0 .164266.01493.2368.0448.072534.02987.168533.07893.288.1472.39254.256.77866.44373 1.1584.5632.37973.11947.77866.1792 1.1968.1792.57174 0 1.01333-.11093 1.3248-.3328.31147-.22187.4672-.54187.4672-.96 0-.24747-.08533-.448-.256-.6016-.17067-.1536-.384-.2752-.64-.3648-.224-.0784-.5264-.16823-.9072-.2695l-.168-.0441c-.64-.16213-1.16053-.3264-1.5616-.4928-.40107-.1664-.746665-.42027-1.0368-.7616-.290135-.34134-.4352-.80213-.4352-1.3824 0-.6912.247464-1.28.7424-1.7664.49494-.4864 1.14346-.78933 1.9456-.9088v-.8064c0-.196268.05973-.356266.1792-.48.11947-.123734.27733-.1856.4736-.1856s.35413.061866.4736.1856c.11947.123734.1792.283732.1792.48v.7936c.86187.11093 1.60426.4224 2.2272.9344.2048.1536.3072.35413.3072.6016 0 .1792-.05333.33707-.16.4736-.10667.13653-.23253.2048-.3776.2048-.0768 0-.15147-.0128-.224-.0384-.07253-.0256-.16853-.0768-.288-.1536-.34987-.24747-.68053-.43307-.992-.5568-.31147-.12373-.68053-.1856-1.1072-.1856-.52907 0-.95147.11733-1.2672.352-.31574.23467-.4736.5568-.4736.9664 0 .2816.0896.50987.2688.6848.1792.17493.40533.30933.6784.4032l.2232.0728c.2416.0752.5384.1576.8904.2472.62294.1536 1.13066.31147 1.5232.4736.39253.16213.72746.40746 1.0048.736.27733.32853.416.7744.416 1.3376z"/><path fill="none" stroke="#FFF" stroke-linecap="round" stroke-width="1.5" d="M18.4494678 29.713562h9.6M21.6494678 33.249865h9.6M18.4494678 36.78617h9.6"/></svg>